<svg width="32" height="32" viewBox="0 0 32 32" fill="none" xmlns="http://www.w3.org/2000/svg">
<mask id="mask0_17530_1125" style="mask-type:alpha" maskUnits="userSpaceOnUse" x="0" y="0" width="32" height="32">
<rect width="32" height="32" fill="#D9D9D9"/>
</mask>
<g mask="url(#mask0_17530_1125)">
<path d="M22.7717 16.6667H7.33341C7.14364 16.6667 6.98508 16.603 6.85775 16.4757C6.73041 16.3483 6.66675 16.1898 6.66675 16C6.66675 15.8102 6.73041 15.6517 6.85775 15.5243C6.98508 15.397 7.14364 15.3333 7.33341 15.3333H22.7717L15.5207 8.08199C15.3907 7.95222 15.3227 7.79922 15.3167 7.62299C15.3107 7.44699 15.3813 7.28544 15.5284 7.13833C15.6753 6.99655 15.8325 6.92433 16.0001 6.92166C16.1676 6.91922 16.3249 6.99144 16.4717 7.13833L24.5794 15.246C24.6959 15.3624 24.7775 15.4813 24.8244 15.6027C24.8715 15.724 24.8951 15.8564 24.8951 16C24.8951 16.1435 24.8715 16.276 24.8244 16.3973C24.7775 16.5187 24.6959 16.6375 24.5794 16.754L16.4717 24.8617C16.3471 24.9863 16.1954 25.053 16.0167 25.0617C15.8381 25.0701 15.6753 25.0034 15.5284 24.8617C15.3813 24.7146 15.3077 24.556 15.3077 24.386C15.3077 24.2158 15.3813 24.0572 15.5284 23.9103L22.7717 16.6667Z" fill="#3DCFB6"/>
</g>
</svg>
